<svg xmlns="http://www.w3.org/2000/svg" width="1278.887" height="546.899" viewBox="0 0 1278.887 546.899">
  <path id="Path_32" data-name="Path 32" d="M-975,1201.03s83.942-132.44,114.846-74.79,53.223,63.883,53.223,63.883,32.621-59.208,51.506-43.627,8.584,98.161,37.771,35.837,70.392-28.046,70.392-28.046,13.735,21.814,51.506,20.255,41.205-88.813,90.994-28.046,77.259,0,77.259,0,51.506-67,61.807,7.791,92.711,0,92.711,0,75.543-68.557,94.428-7.791,94.428,0,94.428,0,53.223-62.324,154.519,7.791,77.259-49.86,142.5,0,90.994-45.185,90.994-45.185V1656H-975Z" transform="translate(975 -1109.101)" fill="rgba(25,25,25,0.9)"/>
</svg>
