<svg xmlns="http://www.w3.org/2000/svg" width="1280.905" height="139.42" viewBox="0 0 1280.905 139.42">
  <path id="Path_94" data-name="Path 94" d="M375,826s26.487-135.284,83.276-69.25,80.562-54.148,62.072,0,15.888-87.165,80.6,0c75.8,66.136,101.591,50.507,101.591,50.507s26.57,4.689,63.3-37.51,80.491-55.484,89.087-6.252,36.729,64.08,86.743,10.159,75.744-90.649,103.1-23.443c4.208,66.124,21.04,81.153,52.3,37.27,26.45-48.09,38.472-81.754,77.546-30.057,34.264,57.107,44.484,64.321,72.136,0s78.143,0,78.143,0,21.321,33.285,51.7,5.408c21.641-44.484,36.669-99.186,40.877-66.124s11.422,66.124,11.422,66.124,5.41,23.444,24.045,6.011,32.461-60.113,32.461-60.113,25.247,8.416,55.9,96.181c18.034,34.264,38.472,6.011,38.472,6.011L1655.9,696.708V826Z" transform="translate(-375 -686.58)" fill="#fff"/>
</svg>
